<svg width="23" height="20" viewBox="0 0 23 20" fill="none" xmlns="http://www.w3.org/2000/svg">
<path id="Vector" d="M21.5639 1.73427H16.8468V0.192697C16.8468 0.0867137 16.7457 0 16.6222 0H15.0498C14.9263 0 14.8252 0.0867137 14.8252 0.192697V1.73427H7.63722V0.192697C7.63722 0.0867137 7.53614 0 7.41259 0H5.84023C5.71668 0 5.6156 0.0867137 5.6156 0.192697V1.73427H0.898496C0.401516 1.73427 0 2.07872 0 2.50506V18.4989C0 18.9253 0.401516 19.2697 0.898496 19.2697H21.5639C22.0609 19.2697 22.4624 18.9253 22.4624 18.4989V2.50506C22.4624 2.07872 22.0609 1.73427 21.5639 1.73427ZM20.4408 17.5354H2.02162V8.38233H20.4408V17.5354ZM2.02162 6.7444V3.46855H5.6156V4.62473C5.6156 4.73072 5.71668 4.81743 5.84023 4.81743H7.41259C7.53614 4.81743 7.63722 4.73072 7.63722 4.62473V3.46855H14.8252V4.62473C14.8252 4.73072 14.9263 4.81743 15.0498 4.81743H16.6222C16.7457 4.81743 16.8468 4.73072 16.8468 4.62473V3.46855H20.4408V6.7444H2.02162Z" fill="#838688"/>
</svg>
